<svg width="56" height="56" viewBox="0 0 56 56" fill="none" xmlns="http://www.w3.org/2000/svg">
<path d="M12.6 18.6377H48.7375H50.4C51.0125 18.6377 51.625 18.8127 52.2375 19.0752V15.0502C52.2375 11.1127 49.0875 7.8752 45.15 7.7002V11.2002V11.7252C45.15 12.6877 44.3625 13.4752 43.4 13.4752C42.4375 13.4752 41.65 12.6002 41.65 11.7252C41.65 11.5502 41.65 11.3752 41.65 11.2002C41.65 10.0627 41.65 8.9252 41.65 7.7002H20.0375V11.2002V11.5502C20.0375 12.5127 19.25 13.3002 18.2875 13.3002C17.325 13.3002 16.5375 12.4252 16.5375 11.5502C16.5375 11.4627 16.5375 11.2877 16.5375 11.2002C16.5375 11.1127 16.5375 11.1127 16.5375 11.0252C16.5375 9.8877 16.5375 8.8377 16.5375 7.7002C12.5125 7.7002 9.1875 11.0252 9.1875 15.0502V20.9127C9.7125 19.5127 11.025 18.6377 12.6 18.6377Z" fill="#E63946"/>
<path d="M48.7375 41.9125C47.5125 44.3625 45.0625 45.85 42.4375 45.85H13.5625H9.625C10.675 48.7375 13.3875 50.75 16.5375 50.75H44.8875C48.9125 50.75 52.2375 47.425 52.2375 43.4V32.8125C51.975 33.775 51.625 34.825 51.275 35.7875C50.575 37.8 49.7 39.9 48.7375 41.9125Z" fill="#E63946"/>
<path d="M50.3994 22.1377H12.5994C12.4244 22.1377 12.3369 22.2252 12.3369 22.4002C11.8119 26.6877 10.7619 30.8877 9.36192 34.9127C8.66192 36.7502 7.87442 38.6752 6.99942 40.5127C6.64942 41.3002 7.17442 42.3502 8.13692 42.3502H42.5244C43.8369 42.3502 45.0619 41.5627 45.6744 40.4252C46.5494 38.5877 47.3369 36.5752 48.0369 34.6502C49.4369 30.7127 50.3119 26.6002 50.7494 22.4877C50.7494 22.4002 50.7494 22.3127 50.6619 22.2252C50.5744 22.1377 50.4869 22.1377 50.3994 22.1377ZM37.0994 29.2252C34.7369 31.5877 32.3744 33.9502 29.9244 36.4002C29.2244 37.1002 28.0869 37.1002 27.4744 36.4002C25.8119 34.7377 24.1494 33.0752 22.4869 31.4127C20.9119 29.8377 23.3619 27.3002 24.9369 28.9627C26.1619 30.1877 27.4744 31.5002 28.6994 32.7252C30.7119 30.7127 32.6369 28.7877 34.6494 26.7752C36.2244 25.2002 38.6744 27.6502 37.0994 29.2252Z" fill="#E63946"/>
</svg>
