<svg width="56" height="56" viewBox="0 0 56 56" fill="none" xmlns="http://www.w3.org/2000/svg">
<path d="M12.1791 51.126H8.10156C7.63743 51.126 7.19231 50.9416 6.86413 50.6134C6.53594 50.2852 6.35156 49.8401 6.35156 49.376V32.0422C6.35156 31.5781 6.53594 31.133 6.86413 30.8048C7.19231 30.4766 7.63743 30.2922 8.10156 30.2922H12.1791C12.6432 30.2922 13.0883 30.4766 13.4165 30.8048C13.7447 31.133 13.9291 31.5781 13.9291 32.0422V49.376C13.9291 49.8401 13.7447 50.2852 13.4165 50.6134C13.0883 50.9416 12.6432 51.126 12.1791 51.126ZM34.2466 11.751C33.7821 11.8346 33.3431 12.0241 32.9637 12.3049C32.5844 12.5856 32.2748 12.95 32.0591 13.3697C31.7616 13.9735 31.7616 13.9735 31.6391 14.0872C31.4759 14.2449 31.2579 14.3331 31.0309 14.3331C30.804 14.3331 30.586 14.2449 30.4228 14.0872C30.3178 13.9822 30.3178 13.9822 30.0028 13.3522C29.7883 12.9401 29.4817 12.5829 29.1069 12.3083C28.7321 12.0336 28.2992 11.8489 27.8416 11.7685C27.7221 11.7595 27.6022 11.7595 27.4828 11.7685C26.9441 11.7585 26.4229 11.9595 26.0303 12.3285C24.8666 13.4485 25.2691 15.2947 26.0303 16.6422C27.0888 18.7107 28.8333 20.347 30.9653 21.271C33.2201 20.434 35.0742 18.7738 36.1541 16.6247C36.5041 15.9772 37.5453 13.7372 36.0578 12.3022C35.8162 12.0823 35.527 11.9212 35.2127 11.8317C34.8985 11.7421 34.5678 11.7265 34.2466 11.786V11.751ZM40.4328 38.3072C40.4328 38.9338 40.1839 39.5347 39.7409 39.9778C39.2978 40.4208 38.6969 40.6697 38.0703 40.6697H37.1253C37.7282 40.7064 38.2943 40.9717 38.7082 41.4116C39.1221 41.8514 39.3526 42.4326 39.3526 43.0366C39.3526 43.6406 39.1221 44.2218 38.7082 44.6616C38.2943 45.1015 37.7282 45.3668 37.1253 45.4035H35.2266C35.8016 45.4061 36.3561 45.6177 36.7868 45.9987C37.2175 46.3797 37.495 46.9042 37.5678 47.4746C37.6406 48.045 37.5036 48.6225 37.1824 49.0994C36.8611 49.5763 36.3775 49.9203 35.8216 50.0672L33.8878 50.7585C30.1435 51.9925 26.177 52.4043 22.2591 51.966C19.924 51.7082 17.6476 51.0667 15.5216 50.0672L14.9441 49.8047C14.9673 49.6511 14.9819 49.4963 14.9878 49.341V32.0422C14.9871 31.8014 14.9636 31.5612 14.9178 31.3247L23.4316 23.8697C21.5929 22.165 20.3773 19.8943 19.9782 17.4189C19.5792 14.9435 20.0197 12.4058 21.2296 10.2097C22.4394 8.01353 24.3491 6.28523 26.6547 5.29985C28.9603 4.31448 31.5293 4.12866 33.9527 4.77199C36.3761 5.41531 38.5147 6.8508 40.028 8.84996C41.5413 10.8491 42.3424 13.297 42.3037 15.8041C42.2651 18.3111 41.3889 20.7332 39.8147 22.6847C38.2404 24.6363 36.0586 26.0052 33.6166 26.5735V30.2922H35.6991C36.0728 30.2911 36.4431 30.3638 36.7887 30.5063C37.1342 30.6488 37.4482 30.8583 37.7125 31.1226C37.9768 31.3869 38.1862 31.7008 38.3287 32.0464C38.4712 32.3919 38.544 32.7622 38.5428 33.136V33.6085C38.5428 33.9187 38.4817 34.2259 38.363 34.5126C38.2442 34.7992 38.0702 35.0596 37.8509 35.279C37.6315 35.4984 37.371 35.6724 37.0844 35.7911C36.7978 35.9099 36.4906 35.971 36.1803 35.971H38.0703C38.3813 35.971 38.6892 36.0324 38.9764 36.1517C39.2636 36.2709 39.5245 36.4457 39.744 36.666C39.9634 36.8863 40.1373 37.1478 40.2555 37.4355C40.3737 37.7231 40.434 38.0312 40.4328 38.3422V38.3072ZM27.9203 26.416C27.5293 26.3051 27.1464 26.1677 26.7741 26.0047V30.2922H27.9203V26.416ZM31.1578 23.0297C32.5599 22.5882 33.86 21.8718 34.9823 20.9223C36.1045 19.9728 37.0264 18.8093 37.6941 17.4997C39.0153 15.0585 38.8491 12.5997 37.2741 11.0772C36.8401 10.6676 36.3175 10.3636 35.7468 10.1891C35.1762 10.0146 34.5729 9.97414 33.9841 10.071C32.819 10.2641 31.7693 10.8889 31.0441 11.821C30.3194 10.8882 29.2695 10.2633 28.1041 10.071C27.5152 9.97414 26.912 10.0146 26.3413 10.1891C25.7706 10.3636 25.248 10.6676 24.8141 11.0772C23.2391 12.5997 23.1253 15.0585 24.5078 17.5085C27.0716 22.0235 30.5803 23.0035 30.7291 23.0385C30.8046 23.0476 30.881 23.0476 30.9566 23.0385L31.1578 23.0297ZM52.2366 15.636V15.3735C52.2368 15.1468 52.1911 14.9225 52.1023 14.714C52.0136 14.5055 51.8835 14.317 51.72 14.1601C51.5565 14.0031 51.363 13.8809 51.151 13.8007C50.939 13.7205 50.713 13.684 50.4866 13.6935L47.3978 13.8247C46.9645 13.8428 46.555 14.0277 46.2549 14.3409C45.9548 14.654 45.7874 15.071 45.7878 15.5047C45.7874 15.9384 45.9548 16.3555 46.2549 16.6686C46.555 16.9817 46.9645 17.1667 47.3978 17.1847L50.4866 17.316C50.7127 17.3242 50.9382 17.2869 51.1496 17.2062C51.361 17.1256 51.5541 17.0033 51.7173 16.8466C51.8806 16.6899 52.0107 16.502 52.0999 16.294C52.189 16.086 52.2355 15.8623 52.2366 15.636ZM50.3291 4.80348L50.1978 4.57598C50.0829 4.38049 49.9297 4.21015 49.7475 4.07512C49.5653 3.94009 49.3578 3.84315 49.1373 3.79007C48.9168 3.73699 48.6879 3.72887 48.4642 3.76618C48.2405 3.80349 48.0266 3.88547 47.8353 4.00723L45.2103 5.66973C44.8446 5.9041 44.5833 6.27036 44.4806 6.69241C44.378 7.11446 44.4419 7.55983 44.6591 7.93598C44.8744 8.3122 45.2275 8.59004 45.6438 8.71086C46.0601 8.83167 46.507 8.786 46.8903 8.58348L49.6291 7.13973C49.8319 7.03596 50.0117 6.8922 50.1575 6.71713C50.3033 6.54205 50.4122 6.33927 50.4776 6.121C50.543 5.90272 50.5636 5.67347 50.5381 5.44705C50.5125 5.22062 50.4414 5.00171 50.3291 4.80348ZM50.3291 26.4685L50.4341 26.2235C50.5251 26.0161 50.5732 25.7925 50.5755 25.566C50.5779 25.3396 50.5345 25.115 50.4478 24.9058C50.3612 24.6965 50.2332 24.507 50.0714 24.3485C49.9096 24.19 49.7175 24.0658 49.5066 23.9835L46.6278 22.8547C46.2264 22.6978 45.7801 22.7011 45.3811 22.8639C44.9821 23.0268 44.661 23.3368 44.4841 23.7297C44.3096 24.1264 44.296 24.5753 44.4462 24.9818C44.5964 25.3883 44.8986 25.7205 45.2891 25.9085L48.1241 27.2997C48.326 27.3949 48.5448 27.4489 48.7678 27.4585C48.9908 27.4681 49.2135 27.4333 49.4228 27.3559C49.6322 27.2785 49.824 27.1601 49.9871 27.0078C50.1502 26.8554 50.2813 26.6721 50.3728 26.4685H50.3291ZM10.6478 17.316L13.7366 17.1847C14.1699 17.1667 14.5794 16.9817 14.8795 16.6686C15.1796 16.3555 15.3469 15.9384 15.3466 15.5047C15.3469 15.071 15.1796 14.654 14.8795 14.3409C14.5794 14.0277 14.1699 13.8428 13.7366 13.8247L10.6478 13.6935C10.4214 13.684 10.1954 13.7205 9.98339 13.8007C9.77141 13.8809 9.57785 14.0031 9.41436 14.1601C9.25086 14.317 9.12082 14.5055 9.03205 14.714C8.94328 14.9225 8.89762 15.1468 8.89781 15.3735V15.636C8.89884 15.8623 8.94533 16.086 9.03452 16.294C9.12371 16.502 9.25379 16.6899 9.41703 16.8466C9.58027 17.0033 9.77334 17.1256 9.98477 17.2062C10.1962 17.2869 10.4217 17.3242 10.6478 17.316ZM11.4703 7.13973L14.2003 8.58348C14.5853 8.78422 15.0329 8.82895 15.45 8.70837C15.8671 8.5878 16.2218 8.31118 16.4403 7.93598C16.6605 7.5614 16.727 7.11608 16.6258 6.69351C16.5247 6.27095 16.2638 5.90401 15.8978 5.66973L13.2728 4.00723C13.0822 3.88566 12.869 3.80382 12.6459 3.76661C12.4229 3.72941 12.1947 3.73761 11.9749 3.79071C11.7551 3.84382 11.5483 3.94074 11.3669 4.07568C11.1855 4.21061 11.0332 4.38078 10.9191 4.57598L10.7878 4.80348C10.6736 5.00034 10.6005 5.21836 10.573 5.44432C10.5456 5.67027 10.5644 5.89945 10.6282 6.11793C10.692 6.33641 10.7996 6.53964 10.9443 6.71529C11.0891 6.89094 11.268 7.03535 11.4703 7.13973ZM13.0366 27.2647L15.8103 25.8997C16.1937 25.7136 16.4916 25.3879 16.6428 24.9894C16.7941 24.5909 16.7874 24.1497 16.6241 23.756C16.4454 23.3624 16.1227 23.0522 15.7222 22.8895C15.3218 22.7267 14.8742 22.7236 14.4716 22.881L11.5928 24.0097C11.3803 24.0904 11.1864 24.2133 11.0228 24.371C10.8591 24.5288 10.7292 24.7181 10.6409 24.9275C10.5525 25.1369 10.5076 25.362 10.5088 25.5893C10.51 25.8166 10.5573 26.0413 10.6478 26.2497L10.7616 26.4947C10.8553 26.6994 10.9892 26.8831 11.1553 27.035C11.3214 27.1869 11.5164 27.3039 11.7286 27.379C11.9408 27.4541 12.1659 27.4858 12.3906 27.4721C12.6153 27.4585 12.835 27.3999 13.0366 27.2997V27.2647Z" fill="#E63946"/>
</svg>
