<svg width="36" height="36" viewBox="0 0 36 36" fill="none" xmlns="http://www.w3.org/2000/svg">
<path d="M34.7291 29.2493L31.2078 23.1631C29.3049 26.107 26.4742 28.3319 23.1641 29.4856L25.9541 34.3118C26.0532 34.4835 26.1959 34.626 26.3678 34.7247C26.5397 34.8235 26.7346 34.8751 26.9328 34.8743C27.1291 34.8732 27.3217 34.8206 27.4915 34.7219C27.6612 34.6232 27.8021 34.4819 27.9003 34.3118L29.8578 30.9368H33.7503C33.9485 30.9376 34.1435 30.886 34.3153 30.7872C34.4872 30.6885 34.6299 30.546 34.7291 30.3743C34.8278 30.2033 34.8798 30.0093 34.8798 29.8118C34.8798 29.6144 34.8278 29.4204 34.7291 29.2493Z" fill="#E63946"/>
<path d="M4.79307 23.1631L1.27182 29.2493C1.17308 29.4204 1.12109 29.6144 1.12109 29.8118C1.12109 30.0093 1.17308 30.2033 1.27182 30.3743C1.37093 30.546 1.51365 30.6885 1.68553 30.7872C1.8574 30.886 2.05233 30.9376 2.25057 30.9368H6.14306L8.10056 34.3118C8.19873 34.4819 8.33968 34.6232 8.50941 34.7219C8.67914 34.8206 8.87174 34.8732 9.06807 34.8743C9.2663 34.8751 9.46123 34.8235 9.6331 34.7247C9.80498 34.626 9.9477 34.4835 10.0468 34.3118L12.8368 29.4856C9.52669 28.3319 6.69602 26.107 4.79307 23.1631Z" fill="#E63946"/>
<path d="M19.1258 11.79L18.0008 9.54004L16.8758 11.79C16.7944 11.9517 16.6752 12.0913 16.5283 12.1971C16.3814 12.3029 16.2112 12.3716 16.032 12.3975L13.6133 12.7575L15.3683 14.49C15.4985 14.6165 15.5962 14.7726 15.653 14.945C15.7098 15.1174 15.724 15.3009 15.6945 15.48L15.2783 17.91L17.427 16.785C17.5914 16.7037 17.7724 16.6614 17.9558 16.6614C18.1392 16.6614 18.3201 16.7037 18.4845 16.785L20.6333 17.91L20.2508 15.48C20.2213 15.3009 20.2355 15.1174 20.2923 14.945C20.3491 14.7726 20.4468 14.6165 20.577 14.49L22.332 12.7575L19.9245 12.375C19.7556 12.3449 19.5958 12.2765 19.4573 12.1751C19.3189 12.0737 19.2055 11.942 19.1258 11.79Z" fill="#E63946"/>
<path d="M31.5 14.6248C31.5 11.9547 30.7082 9.34463 29.2248 7.12456C27.7414 4.9045 25.633 3.17417 23.1662 2.15239C20.6994 1.13061 17.985 0.86326 15.3663 1.38416C12.7475 1.90506 10.3421 3.19081 8.45406 5.07882C6.56606 6.96683 5.28031 9.3723 4.7594 11.991C4.2385 14.6098 4.50585 17.3242 5.52763 19.791C6.54942 22.2578 8.27975 24.3662 10.4998 25.8496C12.7199 27.333 15.33 28.1248 18 28.1248C21.5804 28.1248 25.0142 26.7024 27.5459 24.1707C30.0777 21.639 31.5 18.2052 31.5 14.6248ZM25.5375 12.7798L22.5788 15.6823L23.2763 19.7773C23.3164 19.9882 23.2954 20.2062 23.2157 20.4055C23.1359 20.6049 23.0008 20.7772 22.8263 20.9023C22.6363 21.0398 22.4082 21.1145 22.1738 21.116C21.9891 21.1151 21.8075 21.0687 21.645 20.981L18 19.0348L14.355 20.9585C14.1771 21.0456 13.9795 21.0841 13.7819 21.0703C13.5844 21.0565 13.394 20.9907 13.23 20.8798C13.0555 20.7547 12.9204 20.5824 12.8406 20.383C12.7609 20.1837 12.7398 19.9657 12.78 19.7548L13.4775 15.6598L10.4625 12.7798C10.3109 12.6337 10.2032 12.4481 10.1518 12.2439C10.1004 12.0398 10.1074 11.8253 10.1718 11.6249C10.2363 11.4245 10.3557 11.2462 10.5165 11.1102C10.6772 10.9743 10.8729 10.8862 11.0813 10.856L15.165 10.2598L16.9875 6.53601C17.0796 6.34581 17.2235 6.1854 17.4025 6.07316C17.5816 5.96092 17.7887 5.90139 18 5.90139C18.2113 5.90139 18.4184 5.96092 18.5975 6.07316C18.7766 6.1854 18.9204 6.34581 19.0125 6.53601L20.835 10.2598L24.9188 10.856C25.1271 10.8862 25.3228 10.9743 25.4835 11.1102C25.6443 11.2462 25.7637 11.4245 25.8282 11.6249C25.8926 11.8253 25.8996 12.0398 25.8482 12.2439C25.7968 12.4481 25.6892 12.6337 25.5375 12.7798Z" fill="#E63946"/>
</svg>
