<svg width="36" height="36" viewBox="0 0 36 36" fill="none" xmlns="http://www.w3.org/2000/svg">
<path d="M24.1875 3.9375C24.5605 3.9375 24.9181 4.08566 25.1819 4.34938C25.4456 4.6131 25.5938 4.97079 25.5938 5.34375V6.75H18.8438V5.34375C18.8438 4.97079 18.9919 4.6131 19.2556 4.34938C19.5194 4.08566 19.877 3.9375 20.25 3.9375H24.1875Z" fill="#1A1A1A"/>
<path fill-rule="evenodd" clip-rule="evenodd" d="M27 9.28125C27 9.09658 26.9636 8.91372 26.893 8.7431C26.8223 8.57249 26.7187 8.41746 26.5881 8.28688C26.4575 8.1563 26.3025 8.05271 26.1319 7.98204C25.9613 7.91137 25.7784 7.875 25.5938 7.875H15.7846C15.0418 7.875 14.3293 8.16882 13.8023 8.69231L6.45525 15.9916C6.19214 16.253 5.98334 16.5638 5.84085 16.9063C5.69836 17.2487 5.625 17.6159 5.625 17.9868V29.25C5.625 30.8033 6.88416 32.0625 8.4375 32.0625H19.4889C17.0831 30.6442 15.4688 28.0263 15.4688 25.0312C15.4688 20.5267 19.1205 16.875 23.625 16.875C24.8288 16.875 25.9715 17.1357 27 17.6037V9.28125ZM18.5887 11.4092C19.0038 11.8243 19.237 12.3874 19.237 12.9745C19.237 13.5616 19.0038 14.1246 18.5887 14.5398L12.571 20.5574C12.3654 20.763 12.1214 20.926 11.8528 21.0372C11.5842 21.1485 11.2963 21.2057 11.0055 21.2057C10.4184 21.2056 9.8553 20.9723 9.44016 20.5571C9.02501 20.1419 8.79182 19.5788 8.79187 18.9916C8.7919 18.7009 8.84919 18.413 8.96047 18.1444C9.07175 17.8758 9.23484 17.6318 9.44044 17.4262L15.4575 11.4092C15.6631 11.2036 15.9071 11.0405 16.1757 10.9292C16.4443 10.818 16.7322 10.7607 17.0229 10.7607C17.3137 10.7607 17.6016 10.818 17.8702 10.9292C18.1388 11.0405 18.3831 11.2036 18.5887 11.4092Z" fill="#1A1A1A"/>
<path fill-rule="evenodd" clip-rule="evenodd" d="M23.625 32.0625C27.5082 32.0625 30.6562 28.9145 30.6562 25.0312C30.6562 21.148 27.5082 18 23.625 18C19.7418 18 16.5938 21.148 16.5938 25.0312C16.5938 28.9145 19.7418 32.0625 23.625 32.0625ZM26.4375 25.8562C26.4375 27.4199 25.1783 28.6875 23.625 28.6875C22.0717 28.6875 20.8125 27.4199 20.8125 25.8562C20.8125 24.6473 22.4927 22.4761 23.2557 21.5522C23.3001 21.4969 23.3563 21.4522 23.4202 21.4216C23.4841 21.3909 23.5541 21.375 23.625 21.375C23.6959 21.375 23.7659 21.3909 23.8298 21.4216C23.8937 21.4522 23.9499 21.4969 23.9943 21.5522C24.7573 22.4761 26.4375 24.6473 26.4375 25.8562Z" fill="#1A1A1A"/>
</svg>
