<svg width="36" height="36" viewBox="0 0 36 36" fill="none" xmlns="http://www.w3.org/2000/svg">
<path d="M30.0935 17.0156C30.0935 17.5399 30.0626 18.0568 30.0027 18.565C28.5783 17.4666 26.8297 16.8722 25.031 16.875C23.8102 16.8732 22.6047 17.1466 21.5041 17.6749C21.3936 17.6141 21.2848 17.5504 21.1779 17.4836C21.0381 17.3962 21.0114 17.206 21.1132 17.0764C22.4241 15.4105 23.5452 13.2221 23.8073 10.0603C23.9313 8.56041 22.8162 7.24387 21.3165 7.11956C19.8166 6.99553 18.5001 8.11069 18.3758 9.61031C18.2475 11.1583 17.8237 12.2692 17.1847 13.2207C17.0896 13.3625 16.8899 13.3788 16.7656 13.2618C15.2233 11.8122 13.158 10.411 10.0432 10.1433C8.54385 10.0145 7.22394 11.1257 7.09513 12.625C6.96604 14.1244 8.07726 15.4443 9.5766 15.5731C11.0231 15.6974 11.938 16.2219 12.9567 17.172C13.0692 17.2772 13.0725 17.4532 12.9679 17.5669C11.5639 19.0941 10.2344 21.1295 9.97457 24.1546C9.84576 25.6542 10.957 26.9741 12.4563 27.1029C13.9557 27.2317 15.2756 26.1205 15.4044 24.6212C15.5222 23.2515 15.9989 22.3582 16.8562 21.4023C16.9039 21.3502 16.9696 21.3181 17.04 21.3123C17.1104 21.3066 17.1804 21.3277 17.2359 21.3713C17.3568 21.4644 17.4806 21.557 17.6074 21.6475C17.123 22.7097 16.8731 23.8638 16.8748 25.0312C16.8748 26.9027 17.5048 28.6268 18.5648 30.0029C18.0505 30.0635 17.5332 30.0938 17.0154 30.0938C9.7926 30.0938 3.93726 24.2384 3.93726 17.0156C3.93726 9.79284 9.7926 3.9375 17.0154 3.9375C24.2382 3.9375 30.0935 9.79284 30.0935 17.0156Z" fill="#1A1A1A"/>
<path d="M17.0151 20.5312C17.5377 20.5312 18.0313 20.4075 18.4681 20.1873C18.8944 19.6107 19.3945 19.0926 19.9556 18.646C20.1499 18.2228 20.2502 17.7625 20.2495 17.2969C20.2495 15.5107 18.8014 14.0625 17.0151 14.0625C15.2289 14.0625 13.7808 15.5107 13.7808 17.2969C13.7808 19.0831 15.2289 20.5312 17.0151 20.5312Z" fill="#1A1A1A"/>
<path fill-rule="evenodd" clip-rule="evenodd" d="M25.031 32.0625C28.9142 32.0625 32.0623 28.9145 32.0623 25.0313C32.0623 21.148 28.9142 18 25.031 18C21.1478 18 17.9998 21.148 17.9998 25.0313C17.9998 28.9145 21.1478 32.0625 25.031 32.0625ZM25.6334 22.1023C25.528 21.9969 25.3849 21.9376 25.2358 21.9376C25.0866 21.9376 24.9436 21.9969 24.8381 22.1023L24.4404 22.5C24.0877 22.8528 23.8621 23.3127 23.7992 23.8076C23.7363 24.3025 23.8395 24.8042 24.0928 25.234L22.4517 26.8751C22.3994 26.9274 22.358 26.9894 22.3297 27.0576C22.3014 27.1258 22.2868 27.199 22.2868 27.2729C22.2868 27.3467 22.3014 27.4199 22.3296 27.4881C22.3579 27.5564 22.3993 27.6184 22.4515 27.6706C22.5037 27.7229 22.5658 27.7643 22.634 27.7926C22.7022 27.8209 22.7754 27.8355 22.8493 27.8355C22.9231 27.8355 22.9963 27.8209 23.0645 27.7927C23.1328 27.7644 23.1948 27.723 23.247 27.6708L24.8881 26.0297C25.318 26.2829 25.8197 26.3861 26.3146 26.3232C26.8094 26.2603 27.2694 26.0347 27.6222 25.6821L28.0201 25.2841C28.0724 25.2319 28.1138 25.1698 28.142 25.1016C28.1703 25.0333 28.1848 24.9602 28.1848 24.8863C28.1848 24.8124 28.1702 24.7393 28.142 24.671C28.1137 24.6028 28.0722 24.5408 28.02 24.4886C27.9677 24.4364 27.9057 24.3949 27.8375 24.3667C27.7692 24.3384 27.6961 24.3239 27.6222 24.3239C27.5483 24.3239 27.4752 24.3385 27.4069 24.3667C27.3387 24.395 27.2767 24.4365 27.2245 24.4887L26.8268 24.8864C26.6158 25.0974 26.3296 25.2159 26.0313 25.2159C25.7329 25.2159 25.4467 25.0974 25.2358 24.8864C25.0248 24.6754 24.9062 24.3893 24.9062 24.0909C24.9062 23.7925 25.0248 23.5064 25.2358 23.2954L25.6334 22.8977C25.7389 22.7922 25.7981 22.6492 25.7981 22.5C25.7981 22.3508 25.7389 22.2078 25.6334 22.1023Z" fill="#1A1A1A"/>
</svg>
