<svg width="36" height="36" viewBox="0 0 36 36" fill="none" xmlns="http://www.w3.org/2000/svg">
<g clip-path="url(#clip0_815_306)">
<path d="M23.1696 19.0547C22.9892 17.8102 22.5074 16.6723 21.7857 15.7085L20.3676 17.1266L18.8762 15.6353L20.2943 14.2171C19.3305 13.4954 18.1926 13.0136 16.9481 12.8332V14.8359H14.8387V12.8332C13.5942 13.0136 12.4563 13.4954 11.4925 14.2171L12.9106 15.6352L11.4193 17.1266L10.0011 15.7085C9.27939 16.6723 8.79761 17.8102 8.61719 19.0547H10.62V21.1641H8.61719C8.79761 22.4086 9.27939 23.5465 10.0011 24.5102L11.4192 23.0922L12.9106 24.5835L11.4925 26.0016C12.4563 26.7234 13.5942 27.2052 14.8387 27.3856V25.3828H16.9481V27.3856C18.1926 27.2052 19.3305 26.7234 20.2943 26.0016L18.8762 24.5836L20.3675 23.0922L21.7857 24.5102C22.5074 23.5465 22.9892 22.4086 23.1696 21.1641H21.1668V19.0547H23.1696ZM15.8934 23.2734C14.1487 23.2734 12.7293 21.854 12.7293 20.1094C12.7293 18.3648 14.1488 16.9453 15.8934 16.9453C17.638 16.9453 19.0575 18.3648 19.0575 20.1094C19.0575 21.854 17.638 23.2734 15.8934 23.2734ZM29.2211 16.9453H36.0028C35.4726 7.90137 28.1014 0.530156 19.0575 0V6.78164C24.0867 7.9733 28.0295 11.9161 29.2211 16.9453Z" fill="#1A1A1A"/>
<path d="M15.8906 19.0547C15.3086 19.0547 14.8359 19.5274 14.8359 20.1094C14.8359 20.6914 15.3086 21.1641 15.8906 21.1641C16.4726 21.1641 16.9453 20.6914 16.9453 20.1094C16.9453 19.5274 16.4726 19.0547 15.8906 19.0547Z" fill="#1A1A1A"/>
<path d="M27.4644 19.0547L27.3161 18.1749C26.4963 13.3187 22.6813 9.50372 17.8251 8.68388L16.9453 8.53552V4.36359C16.5929 4.34039 16.2413 4.28906 15.8906 4.28906C7.16695 4.28906 0 11.3857 0 20.1094C0 28.833 7.16695 36 15.8906 36C24.6143 36 31.7109 28.833 31.7109 20.1094C31.7109 19.7587 31.6596 19.4071 31.6365 19.0547H27.4644ZM15.8906 29.6016C10.6565 29.6016 6.39844 25.3435 6.39844 20.1094C6.39844 14.8752 10.6565 10.6172 15.8906 10.6172C21.1248 10.6172 25.3828 14.8752 25.3828 20.1094C25.3828 25.3435 21.1248 29.6016 15.8906 29.6016Z" fill="#1A1A1A"/>
</g>
<defs>
<clipPath id="clip0_815_306">
<rect width="36" height="36" fill="white"/>
</clipPath>
</defs>
</svg>
