<svg width="56" height="56" viewBox="0 0 56 56" fill="none" xmlns="http://www.w3.org/2000/svg">
<path d="M25.6492 4.73142C26.6144 2.78877 29.3856 2.78877 30.3508 4.73142L35.6518 15.4006C36.034 16.1698 36.7685 16.7034 37.6182 16.8292L49.4033 18.5738C51.5491 18.8915 52.4055 21.5271 50.8562 23.0454L42.3473 31.3839C41.7338 31.9851 41.4533 32.8485 41.5962 33.6955L43.5788 45.4429C43.9398 47.5819 41.6978 49.2108 39.7751 48.2065L29.2153 42.6908C28.4539 42.2931 27.5461 42.2931 26.7847 42.6908L16.2249 48.2065C14.3022 49.2108 12.0602 47.5819 12.4212 45.4429L14.4038 33.6955C14.5467 32.8485 14.2662 31.9851 13.6527 31.3839L5.14382 23.0454C3.59452 21.5271 4.45087 18.8915 6.59671 18.5738L18.3818 16.8292C19.2315 16.7034 19.966 16.1698 20.3482 15.4006L25.6492 4.73142Z" fill="#E63946"/>
</svg>
