<svg width="32" height="32" viewBox="0 0 32 32" fill="none" xmlns="http://www.w3.org/2000/svg">
<g clip-path="url(#clip0_1057_82)">
<path d="M24.5719 27.427C24.5719 27.7426 24.8277 27.9984 25.1433 27.9984H29.143C29.4586 27.9984 29.7144 27.7426 29.7144 27.427V25.7129H24.5719V27.427ZM7.43042 23.0503C8.09878 23.4357 8.68195 23.9527 9.14459 24.5701H30.2858C30.6014 24.5701 30.8572 24.3143 30.8572 23.9987V22.856H7.43042V23.0503Z" fill="black"/>
<path d="M6.606 23.9038C6.51026 23.8564 6.42974 23.7831 6.37358 23.6922C6.31743 23.6013 6.28789 23.4964 6.28832 23.3896V8.60677C6.2879 8.49992 6.31744 8.3951 6.3736 8.3042C6.42975 8.2133 6.51027 8.13996 6.606 8.09251C7.34615 7.72339 7.97255 7.16076 8.41871 6.46434C8.86488 5.76792 9.11417 4.96369 9.14011 4.13701C9.16607 3.31033 8.96772 2.49204 8.56611 1.769C8.1645 1.04596 7.57462 0.445146 6.85908 0.0303261V2.85753C6.85946 3.16753 6.79677 3.47437 6.67483 3.75938C6.55289 4.04439 6.37424 4.30162 6.14975 4.51541C5.92526 4.72921 5.65963 4.8951 5.36901 5.00299C5.07839 5.11089 4.76886 5.15854 4.45925 5.14304C3.21994 5.05231 2.2671 4.00968 2.288 2.76722V0.0302734C1.5702 0.444746 0.978438 1.04638 0.575904 1.77095C0.173371 2.49552 -0.0248211 3.3158 0.00249067 4.14422C0.0394071 4.96651 0.294335 5.76419 0.741139 6.45549C1.18794 7.14678 1.81055 7.70682 2.54513 8.07819C2.63971 8.12585 2.71918 8.19886 2.77467 8.28906C2.83017 8.37927 2.8595 8.48312 2.85939 8.58903V23.4096C2.85934 23.5152 2.83 23.6188 2.77462 23.7088C2.71925 23.7988 2.64001 23.8716 2.54571 23.9193C1.81094 24.2906 1.18817 24.8507 0.741252 25.5421C0.294338 26.2335 0.0393676 27.0314 0.00249067 27.8538C-0.0248499 28.6822 0.17333 29.5025 0.575866 30.2271C0.978403 30.9517 1.57018 31.5533 2.288 31.9678V29.2308C2.26515 27.9907 3.21441 26.9484 4.45124 26.8556C4.76151 26.839 5.07191 26.8858 5.36348 26.9932C5.65504 27.1006 5.92165 27.2663 6.147 27.4802C6.37235 27.6941 6.55172 27.9517 6.67415 28.2373C6.79657 28.5229 6.85948 28.8304 6.85903 29.1411V31.9695C7.57509 31.5548 8.16544 30.9538 8.56738 30.2305C8.96931 29.5072 9.16782 28.6885 9.1418 27.8615C9.11579 27.0344 8.86623 26.2298 8.41963 25.5332C7.97304 24.8365 7.34608 24.2739 6.60537 23.905L6.606 23.9038Z" fill="black"/>
<path d="M7.43042 8.94836V11.1579C9.94452 10.959 12.8203 10.8568 16.0012 10.8568C19.8529 10.8156 23.7034 11.0164 27.53 11.4579L25.5359 6.2617C25.4624 6.07128 25.3391 5.90411 25.1789 5.77767C25.0187 5.65122 24.8274 5.57014 24.6251 5.54292C21.7617 5.22892 18.8814 5.09532 16.0012 5.14293C13.794 5.14293 11.8301 5.19548 10.1314 5.29548C9.95784 6.05786 9.62825 6.77603 9.16339 7.40472C8.69852 8.03342 8.10847 8.559 7.43042 8.94836ZM15.2618 6.45316C15.4849 6.67627 15.4849 7.03798 15.2618 7.26109L12.9763 9.5466C12.7521 9.76313 12.3957 9.76003 12.1753 9.53965C11.9549 9.31923 11.9518 8.96289 12.1684 8.73867L14.4539 6.45316C14.5069 6.40002 14.57 6.35786 14.6393 6.32909C14.7087 6.30032 14.783 6.28552 14.8581 6.28552C14.9332 6.28552 15.0076 6.30032 15.077 6.32909C15.1463 6.35786 15.2093 6.40002 15.2624 6.45316H15.2618ZM11.0255 7.02455L11.5969 6.45316C11.8211 6.23663 12.1775 6.23974 12.3979 6.46011C12.6183 6.68054 12.6214 7.03687 12.4049 7.26109L11.8335 7.83248C11.6092 8.04901 11.2529 8.0459 11.0325 7.82553C10.8121 7.60511 10.809 7.24872 11.0255 7.02455ZM29.9172 11.8316C29.9588 11.8083 29.9983 11.7811 30.0349 11.7504C30.1554 11.6307 30.2376 11.4778 30.271 11.3112C30.3045 11.1446 30.2876 10.9718 30.2227 10.8148C30.1577 10.6578 30.0475 10.5236 29.9061 10.4294C29.7648 10.3351 29.5986 10.285 29.4286 10.2854H28.3042L28.8247 11.6419C29.2213 11.7047 29.587 11.771 29.9172 11.8316ZM31.5925 13.3995C30.1795 12.979 25.8335 11.9996 16.0012 11.9996C12.8117 11.9996 9.93536 12.103 7.43042 12.3047V17.034C7.69149 16.6033 8.01195 16.2115 8.38237 15.8701C8.69947 15.5848 9.11111 15.4272 9.53768 15.4279H22.4647C22.8913 15.4274 23.3029 15.5852 23.62 15.8707C24.5812 16.8602 25.2615 18.0879 25.5907 19.4275H31.9999V13.9474C32.0007 13.8242 31.9613 13.7041 31.8878 13.6053C31.8144 13.5064 31.7107 13.4342 31.5925 13.3995ZM17.1439 14.2851H14.8584C14.5428 14.2851 14.287 14.0293 14.287 13.7137C14.287 13.3982 14.5428 13.1423 14.8584 13.1423H17.1439C17.4595 13.1423 17.7153 13.3982 17.7153 13.7137C17.7153 14.0293 17.4595 14.2851 17.1439 14.2851ZM29.143 18.2848H28.0002C27.0535 18.2848 26.2861 17.5174 26.2861 16.5706V15.9993C26.2861 15.3681 26.7977 14.8565 27.4288 14.8565H29.143C30.0897 14.8565 30.8572 15.6239 30.8572 16.5706C30.8572 17.5174 30.0897 18.2848 29.143 18.2848Z" fill="black"/>
<path d="M29.143 15.9993H27.4288V16.5707C27.4288 16.8862 27.6846 17.142 28.0002 17.142H29.143C29.4585 17.142 29.7144 16.8862 29.7144 16.5707C29.7144 16.2551 29.4585 15.9993 29.143 15.9993ZM7.43042 20.5703V21.7131H31.4285C31.7441 21.7131 31.9999 21.4573 31.9999 21.1417V20.5703H7.43042ZM22.4647 16.5707H9.53768C9.39337 16.5704 9.2541 16.6238 9.14686 16.7204C8.41377 17.4795 7.88259 18.4103 7.60182 19.4276H24.4005C24.1204 18.4106 23.59 17.4801 22.8578 16.7209C22.75 16.6236 22.6098 16.57 22.4647 16.5707Z" fill="black"/>
</g>
<defs>
<clipPath id="clip0_1057_82">
<rect width="32" height="32" fill="white"/>
</clipPath>
</defs>
</svg>
