<svg width="40" height="40" viewBox="0 0 40 40" fill="none" xmlns="http://www.w3.org/2000/svg">
<path fill-rule="evenodd" clip-rule="evenodd" d="M25.0711 12.3063L15.9349 21.4426C15.9255 21.452 15.919 21.4641 15.9164 21.4772C15.9138 21.4904 15.9151 21.504 15.9203 21.5164C15.9254 21.5287 15.9341 21.5393 15.9453 21.5467C15.9564 21.5541 15.9695 21.5581 15.9829 21.558C18.5327 21.5533 19.9389 21.5517 21.0739 21.9095C21.0857 21.9134 21.0983 21.9139 21.1104 21.9109C21.1224 21.908 21.1334 21.9017 21.1421 21.8929L27.8999 15.135C28.2433 14.7916 28.6869 14.635 29.1785 14.6964L31.7776 15.0211C32.2645 15.0819 32.709 14.9294 33.0561 14.5824L34.8388 12.7996C35.1536 12.4847 35.306 12.0951 35.2881 11.6502L35.1469 8.13504C35.1463 8.12191 35.142 8.10921 35.1344 8.0985C35.1268 8.0878 35.1162 8.07954 35.1039 8.07476C35.0917 8.06997 35.0783 8.06885 35.0655 8.07155C35.0526 8.07424 35.0408 8.08063 35.0315 8.08992L31.7273 11.3941C31.3849 11.7365 30.8265 11.7364 30.4841 11.3941L28.8123 9.72224C28.47 9.37984 28.47 8.82144 28.8123 8.47904L32.1166 5.1748C32.1259 5.16551 32.1323 5.15371 32.135 5.14084C32.1377 5.12798 32.1366 5.11461 32.1318 5.10237C32.127 5.09013 32.1188 5.07955 32.108 5.07192C32.0973 5.0643 32.0846 5.05996 32.0715 5.05944L28.5564 4.91816C28.1114 4.90024 27.7217 5.05264 27.4068 5.36744L25.624 7.15032C25.277 7.49728 25.1245 7.94184 25.1853 8.42864L25.5101 11.0278C25.5713 11.5194 25.4145 11.963 25.0711 12.3063ZM27.2422 30.6979C26.4994 31.0035 25.9221 31.6958 25.9221 32.7774C25.9221 34.0511 26.9545 35.0834 28.2282 35.0834C29.502 35.0834 30.5343 34.0511 30.5343 32.7774C30.5343 31.6731 29.949 31.0035 29.191 30.6884L29.1907 30.6891C28.5532 30.4343 27.8836 30.4589 27.2443 30.6971C27.2436 30.6974 27.2429 30.6976 27.2422 30.6979ZM12.9965 31.1466C12.096 30.2462 10.6356 30.2462 9.7351 31.1466C8.83462 32.0471 8.83462 33.5075 9.7351 34.408C10.6357 35.3085 12.096 35.3085 12.9965 34.408C13.8969 33.5075 13.8969 32.0471 12.9965 31.1466ZM24.0249 25.1835C24.6483 25.7321 26.2809 26.3431 27.0141 26.5489C29.1745 27.1553 31.5825 27.629 33.7148 28.1102C34.6809 28.3282 35.5211 28.9579 35.6755 29.9251C35.7731 30.5366 35.7085 31.2932 35.6772 32.003C35.6702 32.1599 35.5321 32.2699 35.3701 32.2699H31.5761C31.5599 32.27 31.5441 32.2642 31.5318 32.2535C31.5195 32.2429 31.5115 32.2281 31.5093 32.212C31.3271 30.961 30.5402 30.1398 29.5671 29.7503L29.5674 29.7496C27.6693 28.991 25.2785 29.947 24.9475 32.212C24.9452 32.2281 24.9372 32.2428 24.9249 32.2535C24.9126 32.2641 24.8969 32.2699 24.8806 32.2698H14.7055C14.6895 32.2699 14.674 32.2643 14.6618 32.254C14.6496 32.2437 14.6415 32.2294 14.6389 32.2136C14.5207 31.5225 14.1889 30.9042 13.7138 30.4291C11.8968 28.6121 8.8143 29.4732 8.15934 31.9099C8.1549 31.9266 8.14425 31.9409 8.12959 31.95C8.11492 31.959 8.09734 31.9621 8.08046 31.9586L4.88134 31.3014C4.57766 31.239 4.27246 31.0342 4.27246 30.7203V26.8518C4.27246 26.3134 4.74718 25.9494 5.27454 25.8327L8.4235 25.1358C8.53302 25.1118 8.63138 25.0518 8.70294 24.9655C10.6947 22.5666 10.9785 22.5668 14.959 22.5691C15.2669 22.5693 15.5958 22.5694 15.9478 22.5687C18.5262 22.5628 19.8265 22.5666 20.8123 22.8892C21.7696 23.2025 22.529 23.8674 24.0249 25.1835ZM28.4529 16.036C28.4478 16.0239 28.4465 16.0105 28.4491 15.9976C28.4516 15.9847 28.458 15.9729 28.4673 15.9636C28.6382 15.789 28.7638 15.6396 29.0559 15.6761L31.6551 16.0008C32.3656 16.0896 33.0505 15.8862 33.589 15.4322C33.5977 15.4248 33.6081 15.4197 33.6193 15.4175C33.6305 15.4152 33.642 15.4158 33.6529 15.4192C33.6638 15.4226 33.6736 15.4287 33.6815 15.437C33.6893 15.4452 33.695 15.4553 33.6979 15.4663L34.4761 18.3707C34.48 18.3845 34.4793 18.3992 34.4742 18.4125C34.469 18.4259 34.4597 18.4373 34.4477 18.445L32.1696 19.9243C32.161 19.9297 32.1538 19.9371 32.1485 19.9457C32.1432 19.9544 32.14 19.9641 32.1391 19.9742C32.0211 21.144 31.714 22.2868 31.2297 23.3582C31.2254 23.3674 31.2233 23.3774 31.2236 23.3876C31.2238 23.3978 31.2264 23.4077 31.2311 23.4167L32.466 25.8404C32.4726 25.8531 32.475 25.8676 32.4728 25.8817C32.4705 25.8959 32.4638 25.9089 32.4536 25.919L31.7598 26.6127C31.7519 26.6209 31.742 26.6268 31.7311 26.63C31.7203 26.6332 31.7087 26.6335 31.6977 26.631C30.2083 26.307 28.7168 25.9752 27.2877 25.5738C26.9645 25.4832 26.4777 25.314 25.9959 25.1136C25.9849 25.1091 25.9753 25.1017 25.9681 25.0923C25.9609 25.0829 25.9563 25.0717 25.9547 25.0599C25.9532 25.0481 25.9548 25.0362 25.9594 25.0252C25.964 25.0143 25.9714 25.0047 25.9809 24.9975C28.774 22.8607 29.7077 19.1782 28.4529 16.036ZM15.8828 13.4562C13.716 15.623 13.1137 18.7618 14.076 21.469C14.0797 21.4791 14.0808 21.4901 14.0794 21.5008C14.0779 21.5115 14.0739 21.5218 14.0677 21.5306C14.0615 21.5395 14.0532 21.5467 14.0436 21.5517C14.034 21.5566 14.0233 21.5592 14.0125 21.5592C11.3012 21.5691 10.4153 21.6863 9.1943 22.8907C9.18589 22.8991 9.17544 22.905 9.16399 22.9081C9.15254 22.9111 9.14049 22.911 9.12907 22.9079C9.11764 22.9048 9.10723 22.8988 9.09888 22.8904C9.09053 22.882 9.08454 22.8715 9.0815 22.8601L8.1567 19.4086C8.15287 19.3948 8.15356 19.3801 8.15869 19.3667C8.16382 19.3534 8.17311 19.342 8.18518 19.3343L10.4633 17.855C10.4718 17.8496 10.4791 17.8422 10.4843 17.8336C10.4896 17.8249 10.4928 17.8151 10.4937 17.805C10.6117 16.6353 10.9189 15.4925 11.4031 14.4211C11.4074 14.4119 11.4095 14.4018 11.4093 14.3917C11.4091 14.3815 11.4065 14.3716 11.4017 14.3626L10.1669 11.939C10.1602 11.9263 10.1579 11.9118 10.1601 11.8977C10.1623 11.8835 10.1691 11.8705 10.1793 11.8605L14.2873 7.75256C14.2973 7.74234 14.3103 7.73561 14.3244 7.73337C14.3386 7.73112 14.3531 7.73347 14.3657 7.74008L16.7871 8.97384C16.806 8.98344 16.8262 8.984 16.8455 8.97528C17.9181 8.49331 19.0612 8.18702 20.231 8.06816C20.2411 8.06729 20.2509 8.06408 20.2596 8.05879C20.2682 8.05351 20.2755 8.04628 20.2809 8.03768L21.7611 5.75848C21.7688 5.7464 21.7801 5.7371 21.7935 5.73198C21.8069 5.72685 21.8216 5.72616 21.8353 5.73L24.7398 6.50824C24.7878 6.52112 24.8061 6.5792 24.774 6.6172C24.32 7.15568 24.1165 7.84064 24.2053 8.55112L24.5301 11.1504C24.5665 11.4424 24.4172 11.568 24.2425 11.739C24.2333 11.7483 24.2214 11.7546 24.2085 11.7572C24.1956 11.7597 24.1823 11.7584 24.1701 11.7534C21.403 10.6483 18.1233 11.2156 15.8828 13.4562Z" fill="#1B1B1B"/>
</svg>
