<svg width="36" height="36" viewBox="0 0 36 36" fill="none" xmlns="http://www.w3.org/2000/svg">
<g clip-path="url(#clip0_815_932)">
<path d="M35.5005 28.6631L32.7341 22.8233C32.3859 22.0858 31.1768 22.0858 30.8287 22.8233L28.0787 28.6342C27.7409 29.2501 27.5627 29.9505 27.5627 30.657C27.5627 32.9836 29.4548 34.8756 31.7814 34.8756C34.108 34.8756 36.0001 32.9836 36.0001 30.657C35.9998 29.9614 35.8282 29.2766 35.5005 28.6631ZM33.0995 19.2535C33.0671 19.0278 32.9625 18.8187 32.8013 18.6574C32.6402 18.496 32.4312 18.3912 32.2055 18.3585L21.51 16.8383L20.3719 12.5918C20.1566 11.7863 19.62 11.0859 18.898 10.6699L15.0882 8.47026L16.1427 6.64396C17.6412 7.22102 19.4518 9.34902 20.3234 7.83977C20.615 7.33506 20.4419 6.6903 19.9372 6.39886L12.6308 2.18018C12.1261 1.88768 11.4804 2.06072 11.1899 2.56641C10.8984 3.07111 11.0715 3.71588 11.5762 4.00732L14.3158 5.58921L13.2613 7.4155L8.84142 4.86358L6.47295 2.19038C5.03738 0.575093 2.44694 0.835249 1.36539 2.70844L0.424051 4.33779C0.091782 4.91286 -0.0509256 5.57797 0.0161814 6.23873C0.0832885 6.89949 0.356801 7.52233 0.797902 8.01885L3.70982 11.3029L2.50769 13.3851L22.4194 24.881L32.4918 20.3627C32.6994 20.2683 32.8708 20.1092 32.9803 19.9093C33.0899 19.7093 33.1317 19.4792 33.0995 19.2535ZM4.82146 9.37771L2.37578 6.62013C2.22884 6.45443 2.13774 6.24671 2.11538 6.02637C2.09302 5.80603 2.14053 5.58425 2.25119 5.3924L3.1926 3.76298C3.55154 3.14023 4.41702 3.05114 4.89514 3.58995L6.87366 5.82286L4.82146 9.37771ZM1.45293 15.2122L0.925589 16.1256C0.0522391 17.64 0.569457 19.5724 2.08427 20.4473L13.9307 27.2871C14.8152 27.7976 15.8968 27.8489 16.8228 27.4272L20.0596 25.9546L1.45293 15.2122Z" fill="#1A1A1A"/>
</g>
<defs>
<clipPath id="clip0_815_932">
<rect width="36" height="36" fill="white"/>
</clipPath>
</defs>
</svg>
