<svg width="36" height="36" viewBox="0 0 36 36" fill="none" xmlns="http://www.w3.org/2000/svg">
<path fill-rule="evenodd" clip-rule="evenodd" d="M19.529 22.9037H16.471C15.9227 22.9037 15.4587 22.4608 15.4587 21.9125V14.0883C15.4587 13.5399 15.9227 13.0971 16.471 13.0971H19.529C20.0984 13.0971 20.5413 13.5399 20.5413 14.0883V21.9125C20.5413 22.4608 20.0984 22.9037 19.529 22.9037ZM14.6151 20.5417H12.4218V15.4591H14.6151V20.5417ZM23.5782 20.5417H21.3849V15.4591H23.5782V20.5417ZM11.1564 22.967H10.1441V13.0127H11.1564C11.3884 13.0127 11.5782 13.2025 11.5782 13.4345V22.5452C11.5782 22.7772 11.3884 22.967 11.1564 22.967ZM25.877 22.967H24.8436C24.6116 22.967 24.4218 22.7772 24.4218 22.5452V13.4345C24.4218 13.2025 24.6116 13.0127 24.8436 13.0127H25.877V22.967ZM30.9385 33.9547C28.5764 33.7438 26.7206 31.7614 26.7206 29.3361V27.0584L30.9385 30.4538V33.9547ZM26.7206 25.9617V22.271L30.9385 25.6665V29.3572L26.7206 25.9617ZM26.7206 21.1955V17.4837L30.9385 20.8791V24.5698L26.7206 21.1955ZM26.7206 16.4081V12.7174L30.9385 16.0918V19.8036L26.7206 16.4081ZM26.7206 11.6208V7.93009L30.9385 11.3255V15.0162L26.7206 11.6208ZM26.7206 6.85452V6.66471C26.7206 4.23941 28.5764 2.25698 30.9385 2.04609V10.2289L26.7206 6.85452ZM31.7821 2.04609C34.1441 2.25698 36 4.23941 36 6.66471V6.85452L31.7821 10.2289V2.04609ZM36 7.95118V11.6419L31.7821 15.0162V11.3255L36 7.95118ZM36 12.7174V16.4292L31.7821 19.8036V16.0918L36 12.7174ZM36 17.5048V21.1955L31.7821 24.5909V20.8791L36 17.5048ZM36 22.2921V25.9828L31.7821 29.3572V25.6665L36 22.2921ZM36 27.0584V29.3361C36 31.7614 34.1441 33.7438 31.7821 33.9547V30.4538L36 27.0584ZM18.0105 32.4573C17.9262 32.4573 17.8629 32.4362 17.7996 32.3941L11.7469 29.0619C11.6204 28.9986 11.536 28.851 11.536 28.7034C11.536 28.5558 11.6204 28.4081 11.7469 28.3238L17.7996 24.9916C17.9262 24.9283 18.0949 24.9283 18.2214 24.9916C18.348 25.076 18.4323 25.2236 18.4323 25.3712V26.6155H24.0422C24.2742 26.6155 24.464 26.8053 24.464 27.0373V30.3695C24.464 30.6014 24.2742 30.7913 24.0422 30.7913H18.4323V32.0355C18.4323 32.1832 18.348 32.3308 18.2214 32.3941C18.1582 32.4362 18.0738 32.4573 18.0105 32.4573ZM18.0105 11.0514C17.9262 11.0514 17.8629 11.0303 17.7786 10.9881C17.652 10.9248 17.5888 10.7772 17.5888 10.6296V9.38528H11.9578C11.7258 9.38528 11.536 9.19547 11.536 8.96348V5.63132C11.536 5.39934 11.7258 5.20953 11.9578 5.20953H17.5888V3.96524C17.5888 3.81761 17.652 3.66999 17.7786 3.58563C17.9051 3.52236 18.0738 3.52236 18.2004 3.58563L24.2531 6.91779C24.3796 7.00215 24.464 7.14978 24.464 7.2974C24.464 7.44503 24.3796 7.59266 24.2531 7.65593L18.2004 10.9881C18.1371 11.0303 18.0738 11.0514 18.0105 11.0514ZM4.23902 33.9969C1.85589 33.786 0 31.7825 0 29.3572V27.0795L4.23902 30.4749V33.9969ZM0 25.9828V22.2921L4.23902 25.6876V29.3782L0 25.9828ZM0 21.1955V17.4837L4.23902 20.8791V24.5909L0 21.1955ZM0 16.4081V12.6964L4.23902 16.0918V19.8036L0 16.4081ZM0 11.6208V7.909L4.23902 11.3044V15.0162L0 11.6208ZM0 6.83343V6.64363C0 4.21832 1.85589 2.2148 4.23902 2.00391V10.2289L0 6.83343ZM5.0826 2.00391C7.44464 2.2148 9.30053 4.21832 9.30053 6.64363V6.83343L5.0826 10.2289V2.00391ZM9.30053 7.93009V11.6208L5.0826 15.0162V11.3044L9.30053 7.93009ZM9.30053 12.7174V16.4292L5.0826 19.8036V16.0918L9.30053 12.7174ZM9.30053 17.5048V21.2166L5.0826 24.5909V20.8791L9.30053 17.5048ZM9.30053 22.2921V26.0039L5.0826 29.3782V25.6876L9.30053 22.2921ZM9.30053 27.0795V29.3572C9.30053 31.7825 7.44464 33.786 5.0826 33.9969V30.4749L9.30053 27.0795Z" fill="#1A1A1A"/>
</svg>
