<svg width="36" height="36" viewBox="0 0 36 36" fill="none" xmlns="http://www.w3.org/2000/svg">
<path d="M16.8805 2.5342C13.7554 2.49848 10.6954 3.42776 8.11783 5.19527C5.54031 6.96277 3.57084 9.48244 2.4781 12.4105C1.38536 15.3386 1.22256 18.5325 2.01193 21.5565C2.80129 24.5805 4.50436 27.2874 6.88882 29.3078C6.73037 29.4644 6.62234 29.6649 6.57858 29.8834C6.53483 30.1018 6.55734 30.3284 6.64324 30.534C6.72913 30.7396 6.87449 30.9149 7.06067 31.0373C7.24684 31.1597 7.46535 31.2237 7.68815 31.2211H4.87346C4.5752 31.2211 4.28915 31.3396 4.07825 31.5505C3.86735 31.7614 3.74886 32.0474 3.74886 32.3457C3.74886 32.644 3.86735 32.93 4.07825 33.1409C4.28915 33.3518 4.5752 33.4703 4.87346 33.4703H28.505C28.8038 33.4703 29.0904 33.3516 29.3017 33.1403C29.513 32.929 29.6317 32.6424 29.6317 32.3436C29.6317 32.0447 29.513 31.7582 29.3017 31.5469C29.0904 31.3356 28.8038 31.2168 28.505 31.2168H25.6903C25.9127 31.2174 26.1302 31.1519 26.3153 31.0286C26.5004 30.9053 26.6447 30.7297 26.7299 30.5243C26.8151 30.3188 26.8373 30.0927 26.7938 29.8746C26.7503 29.6565 26.6429 29.4563 26.4854 29.2993C28.3419 27.7327 29.7954 25.7436 30.7239 23.4989C31.6524 21.2543 32.0287 18.8196 31.8214 16.3993C31.4927 12.6477 29.7819 9.15201 27.0211 6.59072C24.2602 4.02942 20.6462 2.58098 16.8805 2.5342ZM16.6892 9.2818C17.7979 9.2818 18.8957 9.50014 19.92 9.92433C20.9442 10.3485 21.8748 10.9703 22.6586 11.754C23.4423 12.5378 24.0639 13.4682 24.4878 14.4922C24.9117 15.5161 25.1296 16.6135 25.129 17.7216C25.129 19.9589 24.2398 22.1045 22.6571 23.6865C21.0743 25.2685 18.9276 26.1572 16.6892 26.1572C14.4516 26.1561 12.306 25.2668 10.7241 23.685C9.14225 22.1031 8.25364 19.9581 8.25364 17.7216C8.25309 16.6139 8.47083 15.5168 8.89446 14.4931C9.31808 13.4695 9.93929 12.5392 10.7226 11.7555C11.5059 10.9718 12.436 10.35 13.4598 9.92555C14.4835 9.50111 15.5809 9.28236 16.6892 9.2818Z" fill="#1A1A1A"/>
<path d="M16.6893 10.2598C16.1195 10.2598 15.5668 10.3278 15.0311 10.4468L15.1841 11.3695C15.4095 12.7131 15.1331 13.8525 14.3125 14.4478C13.4919 15.043 12.3227 14.9538 11.1152 14.3245L10.2861 13.8993C9.72482 14.8347 9.36767 15.9019 9.26562 17.0456L10.184 17.1902C11.5318 17.3943 12.5268 18.0065 12.8414 18.9717C13.156 19.9326 12.7096 21.0126 11.7359 21.9735L11.0726 22.6283C11.804 23.4659 12.7181 24.1376 13.7555 24.5841L14.1722 23.7465C14.7845 22.5262 15.6731 21.7651 16.6893 21.7651C17.7055 21.7651 18.5941 22.5262 19.2063 23.7465L19.623 24.5798C20.6605 24.1376 21.5746 23.4659 22.3059 22.6283L21.6426 21.9735C20.669 21.0168 20.2225 19.9326 20.5371 18.9717C20.8518 18.0065 21.8467 17.3943 23.1988 17.1902L24.1172 17.0499C24.0188 15.9343 23.6684 14.8556 23.0925 13.8951L22.2676 14.3245C21.0559 14.9538 19.8866 15.0473 19.0703 14.4478C18.2497 13.8525 17.9691 12.7131 18.1944 11.3652L18.3475 10.4468C17.8035 10.3226 17.2473 10.2599 16.6893 10.2598ZM16.6468 12.9384C16.7802 12.9281 16.9128 12.9658 17.0209 13.0447C17.0812 13.0878 17.1323 13.1424 17.1714 13.2053C17.2104 13.2682 17.2367 13.3383 17.2485 13.4114C17.2604 13.4845 17.2576 13.5593 17.2405 13.6314C17.2233 13.7034 17.192 13.7714 17.1485 13.8313C17.1054 13.8915 17.0508 13.9427 16.9879 13.9817C16.9249 14.0208 16.8549 14.047 16.7817 14.0589C16.7086 14.0707 16.6339 14.068 16.5618 14.0508C16.4897 14.0337 16.4218 14.0024 16.3619 13.9588C16.301 13.9157 16.2494 13.8609 16.2099 13.7976C16.1705 13.7343 16.144 13.6638 16.1322 13.5902C16.1203 13.5166 16.1232 13.4413 16.1407 13.3688C16.1583 13.2963 16.1901 13.228 16.2343 13.168C16.2827 13.1015 16.3451 13.0465 16.4171 13.0069C16.4891 12.9672 16.5647 12.9438 16.6468 12.9384ZM16.6893 15.4682C16.9852 15.4682 17.2782 15.5265 17.5516 15.6398C17.825 15.753 18.0735 15.919 18.2827 16.1282C18.492 16.3375 18.6579 16.5859 18.7712 16.8593C18.8844 17.1327 18.9427 17.4257 18.9427 17.7217C18.9416 18.3186 18.7037 18.8907 18.2812 19.3124C17.8587 19.734 17.2862 19.9709 16.6893 19.9709C16.3933 19.9709 16.1003 19.9126 15.8269 19.7993C15.5535 19.6861 15.3051 19.5201 15.0958 19.3109C14.8866 19.1016 14.7206 18.8532 14.6073 18.5798C14.4941 18.3064 14.4358 18.0134 14.4358 17.7174C14.4369 17.1205 14.6749 16.5484 15.0973 16.1267C15.5198 15.7051 16.0924 15.4682 16.6893 15.4682ZM20.7157 15.8509C20.7734 15.8506 20.8308 15.8592 20.8858 15.8764C20.9559 15.8995 21.0208 15.9362 21.0767 15.9844C21.1327 16.0326 21.1785 16.0913 21.2117 16.1573C21.2449 16.2233 21.2647 16.2951 21.2701 16.3688C21.2755 16.4424 21.2662 16.5164 21.2429 16.5864C21.2203 16.657 21.1839 16.7223 21.1359 16.7787C21.0879 16.8351 21.0292 16.8814 20.9632 16.915C20.8972 16.9486 20.8252 16.9688 20.7513 16.9744C20.6775 16.9801 20.6032 16.971 20.5329 16.9478C20.4628 16.9248 20.3979 16.8881 20.3419 16.8399C20.286 16.7917 20.2402 16.7329 20.207 16.6669C20.1738 16.601 20.154 16.5291 20.1486 16.4555C20.1432 16.3818 20.1525 16.3079 20.1757 16.2378C20.2096 16.1328 20.2736 16.0401 20.3598 15.9713C20.446 15.9025 20.5506 15.8606 20.6605 15.8509C20.6789 15.85 20.6973 15.85 20.7157 15.8509ZM12.6458 15.8594C12.7397 15.8546 12.8333 15.8736 12.918 15.9144C13.0027 15.9553 13.0758 16.0168 13.1305 16.0932C13.1745 16.1526 13.2063 16.2201 13.2242 16.2919C13.242 16.3636 13.2455 16.4382 13.2344 16.5113C13.2234 16.5844 13.198 16.6545 13.1597 16.7178C13.1214 16.781 13.0711 16.8361 13.0115 16.8798C12.9515 16.9234 12.8836 16.9546 12.8115 16.9718C12.7395 16.989 12.6647 16.9917 12.5916 16.9799C12.5185 16.968 12.4484 16.9418 12.3855 16.9027C12.3225 16.8637 12.268 16.8125 12.2249 16.7523C12.1378 16.6321 12.1019 16.4823 12.125 16.3356C12.1481 16.189 12.2284 16.0575 12.3482 15.9699C12.4347 15.9052 12.538 15.8668 12.6458 15.8594ZM14.1892 20.5746C14.3115 20.5695 14.4322 20.6046 14.5328 20.6744C14.6333 20.7443 14.7083 20.8451 14.7462 20.9615C14.7695 21.0316 14.7787 21.1056 14.7733 21.1792C14.768 21.2529 14.7481 21.3247 14.715 21.3907C14.6818 21.4566 14.6359 21.5154 14.58 21.5636C14.5241 21.6118 14.4592 21.6485 14.389 21.6716C14.3187 21.6948 14.2445 21.7038 14.1706 21.6982C14.0968 21.6925 14.0248 21.6723 13.9588 21.6387C13.8928 21.6052 13.8341 21.5588 13.786 21.5024C13.738 21.446 13.7016 21.3807 13.679 21.3102C13.6335 21.1687 13.646 21.0149 13.7137 20.8825C13.7815 20.7502 13.899 20.6502 14.0404 20.6044C14.0884 20.5878 14.1385 20.5778 14.1892 20.5746ZM19.1723 20.5746C19.3212 20.5746 19.4639 20.6338 19.5692 20.739C19.6744 20.8443 19.7336 20.987 19.7336 21.1359C19.7336 21.2847 19.6744 21.4275 19.5692 21.5327C19.4639 21.638 19.3212 21.6971 19.1723 21.6971C19.0235 21.6971 18.8807 21.638 18.7755 21.5327C18.6702 21.4275 18.6111 21.2847 18.6111 21.1359C18.6111 20.987 18.6702 20.8443 18.7755 20.739C18.8807 20.6338 19.0235 20.5746 19.1723 20.5746Z" fill="#1A1A1A"/>
<path d="M13.9459 10.7832L14.0735 11.5528C14.2563 12.6582 14.0097 13.279 13.6483 13.5384C13.2912 13.7977 12.6279 13.8445 11.633 13.3258L10.9272 12.9686C11.7222 12.0077 12.7597 11.2509 13.9459 10.7832ZM19.4308 10.7832C20.6128 11.2509 21.6502 12.0035 22.4453 12.9644L21.748 13.33C20.7531 13.8445 20.0855 13.7977 19.7284 13.5426C19.3712 13.279 19.1204 12.6582 19.3032 11.5528L19.4308 10.7832ZM9.25195 18.1898L10.0173 18.3046C11.1227 18.4705 11.633 18.8999 11.7733 19.3166C11.9093 19.7417 11.7478 20.3838 10.9484 21.1704L10.3914 21.7231C9.71833 20.6609 9.32623 19.4451 9.25195 18.1898ZM24.129 18.1898C24.0529 19.4441 23.6594 20.6584 22.9853 21.7188L22.4325 21.1704C21.6332 20.3838 21.4674 19.7375 21.6077 19.3166C21.7437 18.8956 22.254 18.4662 23.3637 18.3004L24.129 18.1898ZM16.6884 22.8881C17.1305 22.8881 17.696 23.2452 18.1977 24.2487L18.5421 24.9417C17.9469 25.0905 17.3304 25.1798 16.6884 25.1798C16.0506 25.1798 15.4298 25.0948 14.8346 24.9417L15.179 24.2487C15.6807 23.2452 16.2462 22.8881 16.6884 22.8881Z" fill="#1A1A1A"/>
<path fill-rule="evenodd" clip-rule="evenodd" d="M33.9809 28.4442C34.0737 28.4511 34.1633 28.481 34.2417 28.5312C34.32 28.5814 34.3847 28.6503 34.4298 28.7317C34.4749 28.8131 34.4991 28.9044 34.5002 28.9975C34.5012 29.0905 34.4791 29.1824 34.4358 29.2648L33.8831 30.3745C33.8166 30.5081 33.6997 30.6098 33.5582 30.6573C33.4166 30.7047 33.262 30.694 33.1284 30.6275C32.9948 30.5609 32.8931 30.4441 32.8456 30.3025C32.7982 30.161 32.8089 30.0064 32.8754 29.8728L33.4282 28.7588C33.4777 28.6566 33.557 28.5718 33.6557 28.5156C33.7543 28.4595 33.8678 28.4345 33.9809 28.4442ZM31.1237 26.752C31.2435 26.7521 31.3601 26.7905 31.4565 26.8616C31.5529 26.9328 31.624 27.0329 31.6594 27.1474L32.2164 28.8183C32.2437 28.889 32.2565 28.9646 32.2538 29.0403C32.2512 29.1161 32.2332 29.1906 32.201 29.2592C32.1688 29.3278 32.123 29.3892 32.0664 29.4397C32.0098 29.4901 31.9436 29.5286 31.8717 29.5528C31.7998 29.5769 31.7238 29.5862 31.6482 29.5802C31.5726 29.5742 31.4991 29.5529 31.4319 29.5176C31.3648 29.4824 31.3055 29.4339 31.2577 29.3751C31.2098 29.3163 31.1744 29.2484 31.1535 29.1755L30.5922 27.5045C30.5615 27.4198 30.5516 27.3289 30.5634 27.2395C30.5753 27.1502 30.6085 27.065 30.6602 26.9912C30.7119 26.9173 30.7806 26.8571 30.8606 26.8154C30.9405 26.7738 31.0293 26.752 31.1194 26.752H31.1237Z" fill="#1A1A1A"/>
</svg>
